#define image1_width 225
#define image1_height 225
static unsigned char image1_bits[] = {
   0x00, 0x00, 0x00, 0x00, 0x00, 0x00, 0x00, 0x00, 0x00, 0x00, 0x00, 0x00,
   0x00, 0x00, 0x00, 0x00, 0x00, 0x00, 0x00, 0x00, 0x00, 0x00, 0x00, 0x00,
   0x00, 0x00, 0x00, 0x00, 0x00, 0x00, 0x00, 0x00, 0x00, 0x00, 0x00, 0x00,
   0x00, 0x00, 0x00, 0x00, 0x00, 0x00, 0x00, 0x00, 0x00, 0x00, 0x00, 0x00,
   0x00, 0x00, 0x00, 0x00, 0x00, 0x00, 0x00, 0x00, 0x00, 0x00, 0x00, 0x00,
   0x00, 0x00, 0x00, 0x00, 0x00, 0x00, 0x00, 0x00, 0x00, 0x00, 0x00, 0x00,
   0xf5, 0x57, 0x00, 0x00, 0x00, 0x00, 0x00, 0x00, 0x00, 0x00, 0x00, 0x00,
   0x00, 0x00, 0x00, 0x00, 0x00, 0x00, 0x00, 0x00, 0x00, 0x00, 0x00, 0x00,
   0x00, 0x00, 0x00, 0x00, 0xfc, 0xff, 0xff, 0x03, 0x00, 0x00, 0x00, 0x00,
   0x00, 0x00, 0x00, 0x00, 0x00, 0x00, 0x00, 0x00, 0x00, 0x00, 0x00, 0x00,
   0x00, 0x00, 0x00, 0x00, 0x00, 0x00, 0x00, 0x00, 0xf0, 0xff, 0xff, 0x0b,
   0x00, 0x00, 0x00, 0x00, 0x00, 0x00, 0x00, 0x00, 0x00, 0x00, 0x00, 0x00,
   0x00, 0x00, 0x00, 0x00, 0x00, 0x00, 0x00, 0x00, 0x00, 0x00, 0x00, 0x00,
   0x00, 0xff, 0xff, 0x07, 0x00, 0x00, 0x00, 0x00, 0x00, 0x00, 0x00, 0x00,
   0x00, 0x00, 0x00, 0x00, 0x00, 0x00, 0x00, 0x00, 0x00, 0x00, 0x00, 0x00,
   0x00, 0x00, 0x00, 0x00, 0x00, 0xe0, 0xff, 0x3f, 0x00, 0x00, 0x00, 0x00,
   0x00, 0x00, 0x00, 0x00, 0x00, 0x00, 0x00, 0x00, 0x00, 0x00, 0x00, 0x00,
   0x00, 0x00, 0x00, 0x00, 0x00, 0x00, 0x00, 0x00, 0x00, 0x00, 0xfc, 0xff,
   0x03, 0x00, 0x00, 0x00, 0x00, 0x00, 0x00, 0x00, 0x00, 0x00, 0x00, 0x00,
   0x00, 0x00, 0x00, 0x00, 0x00, 0x00, 0x00, 0x00, 0x00, 0x00, 0x00, 0x00,
   0x00, 0x00, 0x80, 0xff, 0x3f, 0x00, 0x00, 0x00, 0x00, 0x00, 0x00, 0x00,
   0x00, 0x00, 0x00, 0x00, 0x00, 0x00, 0x00, 0x00, 0x00, 0x00, 0x00, 0x00,
   0x00, 0x00, 0x00, 0x00, 0x00, 0x00, 0x00, 0xf0, 0xff, 0x07, 0x00, 0x00,
   0x00, 0x00, 0x00, 0x00, 0x00, 0x00, 0x00, 0x00, 0x00, 0x00, 0x00, 0x00,
   0x00, 0x00, 0x00, 0x00, 0x00, 0x00, 0x00, 0x00, 0x00, 0x00, 0x00, 0x00,
   0xfc, 0xff, 0x00, 0x00, 0x00, 0x00, 0x00, 0x00, 0x00, 0x00, 0x00, 0x00,
   0x00, 0x00, 0x00, 0x00, 0x00, 0x00, 0x00, 0x00, 0x00, 0x00, 0x00, 0x00,
   0x00, 0x00, 0x00, 0x00, 0x00, 0xff, 0x1f, 0x00, 0x00, 0x00, 0x00, 0x00,
   0x00, 0x00, 0x00, 0x00, 0x00, 0x00, 0x00, 0x00, 0x00, 0x00, 0x00, 0x00,
   0x00, 0x00, 0x00, 0x00, 0x00, 0x00, 0x00, 0x00, 0x00, 0xc0, 0xff, 0x07,
   0x00, 0x00, 0x00, 0x00, 0x00, 0x00, 0x00, 0x00, 0x00, 0x00, 0x00, 0x00,
   0x00, 0x00, 0x00, 0x00, 0x00, 0x00, 0x00, 0x00, 0x00, 0x00, 0x00, 0x00,
   0x00, 0x00, 0xf0, 0xff, 0x00, 0x00, 0x00, 0x00, 0x00, 0x00, 0x00, 0x00,
   0x00, 0x00, 0x00, 0x00, 0x00, 0x00, 0x00, 0x00, 0x00, 0x00, 0x00, 0x00,
   0x00, 0x00, 0x00, 0x00, 0x00, 0x00, 0x00, 0xfc, 0x3f, 0x00, 0x00, 0x00,
   0x00, 0x00, 0x00, 0x00, 0x00, 0x00, 0x00, 0x00, 0x00, 0x00, 0x00, 0x00,
   0x00, 0x00, 0x00, 0x00, 0x00, 0x00, 0x00, 0x00, 0x00, 0x00, 0x00, 0x00,
   0xfe, 0x1f, 0x00, 0x00, 0x00, 0x00, 0x00, 0x00, 0x00, 0x00, 0x00, 0x00,
   0x00, 0x00, 0x00, 0x00, 0x00, 0x00, 0x00, 0x00, 0x00, 0x00, 0x00, 0x00,
   0x00, 0x00, 0x00, 0x00, 0x80, 0xff, 0x03, 0x00, 0x00, 0x00, 0x00, 0x00,
   0x00, 0x00, 0x00, 0x00, 0x00, 0x00, 0x00, 0x00, 0x00, 0x00, 0x00, 0x00,
   0x00, 0x00, 0x00, 0x00, 0x00, 0x00, 0x00, 0x00, 0x00, 0xe0, 0xff, 0x01,
   0x00, 0x00, 0x00, 0x00, 0x00, 0x00, 0x00, 0x00, 0x00, 0x00, 0x00, 0x00,
   0x00, 0x00, 0x00, 0x00, 0x00, 0x00, 0x00, 0x00, 0x00, 0x00, 0x00, 0x00,
   0x00, 0x00, 0xf0, 0x7f, 0x00, 0x00, 0x00, 0x00, 0x00, 0x00, 0x00, 0x00,
   0x00, 0x00, 0x00, 0x00, 0x00, 0x00, 0x00, 0x00, 0x00, 0x00, 0x00, 0x00,
   0x00, 0x00, 0x00, 0x00, 0x00, 0x00, 0x00, 0xfc, 0x1f, 0x00, 0x00, 0x00,
   0x00, 0x00, 0x00, 0x00, 0x00, 0x00, 0x00, 0x00, 0x00, 0x00, 0x00, 0x00,
   0x00, 0x00, 0x00, 0x00, 0x00, 0x00, 0x00, 0x00, 0x00, 0x00, 0x00, 0x00,
   0xfe, 0x0f, 0x00, 0x00, 0x00, 0x00, 0x00, 0x00, 0x00, 0x00, 0x00, 0x00,
   0x00, 0x00, 0x00, 0x00, 0x00, 0x00, 0x00, 0x00, 0x00, 0x00, 0x00, 0x00,
   0x00, 0x00, 0x00, 0x00, 0x00, 0xff, 0x03, 0x00, 0x00, 0x00, 0x00, 0x00,
   0x00, 0x00, 0x00, 0x00, 0x00, 0x00, 0x00, 0x00, 0x00, 0x00, 0x00, 0x00,
   0x00, 0x00, 0x00, 0x00, 0x00, 0x00, 0x00, 0x00, 0x00, 0xc0, 0xe7, 0x01,
   0x00, 0x00, 0x00, 0x40, 0xff, 0xff, 0x0b, 0x00, 0x00, 0x00, 0x00, 0x00,
   0x00, 0x00, 0x00, 0x00, 0x00, 0x00, 0x00, 0x00, 0x00, 0x00, 0x00, 0x00,
   0x00, 0x00, 0xe0, 0x7b, 0x00, 0x00, 0x00, 0x00, 0xfe, 0x55, 0x55, 0xff,
   0x03, 0x00, 0x00, 0x00, 0x00, 0x00, 0x00, 0x00, 0x00, 0x00, 0x00, 0x00,
   0x00, 0x00, 0x00, 0x00, 0x00, 0x00, 0x00, 0xf0, 0x3c, 0x00, 0x00, 0x00,
   0xf0, 0x17, 0x00, 0x00, 0x40, 0x3f, 0x00, 0x00, 0x00, 0x00, 0x00, 0x00,
   0x00, 0x00, 0x00, 0x00, 0x00, 0x00, 0x00, 0x00, 0x00, 0x00, 0x00, 0x00,
   0x78, 0x1e, 0x00, 0x00, 0x00, 0x7e, 0x00, 0x00, 0x00, 0x00, 0xf0, 0x03,
   0x00, 0x00, 0x00, 0x00, 0x00, 0x00, 0x00, 0x00, 0x00, 0x00, 0x00, 0x00,
   0x00, 0x00, 0x00, 0x00, 0x00, 0x3e, 0x07, 0x00, 0x00, 0xc0, 0x03, 0x00,
   0x00, 0x00, 0x00, 0x80, 0x0f, 0x00, 0x00, 0x00, 0x00, 0x00, 0x00, 0x00,
   0x00, 0x00, 0x00, 0x00, 0x00, 0x00, 0x00, 0x00, 0x00, 0x00, 0x8f, 0x03,
   0x00, 0x00, 0xf8, 0x00, 0x00, 0x00, 0x00, 0x00, 0x00, 0x7c, 0x00, 0x00,
   0x00, 0x00, 0x00, 0x00, 0x00, 0x00, 0x00, 0x00, 0x00, 0x00, 0x00, 0x00,
   0x00, 0x00, 0x80, 0xc7, 0x01, 0x00, 0x00, 0x1e, 0x00, 0x00, 0x00, 0x00,
   0x00, 0x00, 0xe0, 0x03, 0x00, 0x00, 0x00, 0x00, 0x00, 0x00, 0x00, 0x00,
   0x00, 0x00, 0x00, 0x00, 0x00, 0x00, 0x00, 0xc0, 0xe3, 0x00, 0x00, 0x80,
   0x03, 0x00, 0x00, 0x00, 0x00, 0x00, 0x00, 0x00, 0x0f, 0x00, 0x00, 0x00,
   0x00, 0x00, 0x00, 0x00, 0x00, 0x00, 0x00, 0x00, 0x00, 0x00, 0x00, 0x00,
   0xe0, 0x71, 0x00, 0x00, 0xe0, 0x00, 0x00, 0x00, 0x00, 0x00, 0x00, 0x00,
   0x00, 0x3c, 0x00, 0x00, 0x00, 0x00, 0x00, 0x00, 0x00, 0x00, 0x00, 0x00,
   0x00, 0x00, 0x00, 0x00, 0x00, 0xf0, 0x38, 0x00, 0x00, 0x3c, 0x00, 0x00,
   0x00, 0x40, 0x05, 0x00, 0x00, 0x00, 0xf0, 0x00, 0x00, 0x00, 0x00, 0x00,
   0x00, 0x00, 0x00, 0x00, 0x00, 0x00, 0x00, 0x00, 0x00, 0x00, 0x78, 0x1c,
   0x00, 0x00, 0x0e, 0x00, 0x00, 0xf0, 0xff, 0xff, 0x17, 0x00, 0x00, 0xc0,
   0x03, 0x00, 0x00, 0x00, 0x00, 0x00, 0x00, 0x00, 0x00, 0x00, 0x00, 0x00,
   0x00, 0x00, 0x00, 0x38, 0x0e, 0x00, 0x80, 0x03, 0x00, 0x80, 0xff, 0x7f,
   0xfd, 0xff, 0x01, 0x00, 0x00, 0x0f, 0x00, 0x00, 0x00, 0x00, 0x00, 0x00,
   0x00, 0x00, 0x00, 0x00, 0x00, 0x00, 0x00, 0x00, 0x1e, 0x07, 0x00, 0xe0,
   0x00, 0x00, 0xf8, 0x0f, 0x00, 0x00, 0xe8, 0x1f, 0x00, 0x00, 0x1c, 0x00,
   0x00, 0x00, 0x00, 0x00, 0x00, 0x00, 0x00, 0x00, 0x00, 0x00, 0x00, 0x00,
   0x00, 0x0e, 0x03, 0x00, 0x70, 0x00, 0x00, 0xff, 0x00, 0x00, 0x00, 0x00,
   0xfe, 0x0d, 0x00, 0x70, 0x00, 0x00, 0x00, 0x00, 0x00, 0x00, 0x00, 0x00,
   0x00, 0x00, 0x00, 0x00, 0x00, 0x00, 0xc7, 0x01, 0x00, 0x18, 0x00, 0xe0,
   0x0f, 0x00, 0x00, 0x00, 0x00, 0xe0, 0x6b, 0x00, 0xe0, 0x00, 0x00, 0x00,
   0x00, 0x00, 0x00, 0x00, 0x00, 0x00, 0x00, 0x00, 0x00, 0x00, 0x80, 0xc3,
   0x00, 0x00, 0x0e, 0x00, 0xf8, 0x01, 0x00, 0x00, 0x00, 0x00, 0x00, 0x9f,
   0x01, 0x80, 0x03, 0x00, 0x00, 0x00, 0x00, 0x00, 0x00, 0x00, 0x00, 0x00,
   0x00, 0x00, 0x00, 0xc0, 0x61, 0x00, 0x00, 0x03, 0x00, 0x3e, 0x00, 0x00,
   0x00, 0x00, 0x00, 0x00, 0xf8, 0x06, 0x00, 0x07, 0x00, 0x00, 0x00, 0x00,
   0x00, 0x00, 0x00, 0x00, 0x00, 0x00, 0x00, 0x00, 0xe0, 0x30, 0x00, 0xc0,
   0x01, 0x80, 0x0f, 0x00, 0x00, 0x00, 0x00, 0x00, 0x00, 0xe0, 0x3b, 0x00,
   0x1c, 0x00, 0x00, 0x00, 0x00, 0x00, 0x00, 0x00, 0x00, 0x00, 0x00, 0x00,
   0x00, 0x70, 0x18, 0x00, 0xe0, 0x00, 0xe0, 0x03, 0x00, 0x00, 0x00, 0x00,
   0x00, 0x00, 0x80, 0x67, 0x00, 0x38, 0x00, 0x00, 0x00, 0x00, 0x00, 0x00,
   0x00, 0x00, 0x00, 0x00, 0x00, 0x00, 0x70, 0x1c, 0x00, 0x30, 0x00, 0xf8,
   0x00, 0x00, 0x00, 0x00, 0x00, 0x00, 0x00, 0x00, 0x9e, 0x01, 0x70, 0x00,
   0x00, 0x00, 0x00, 0x00, 0x00, 0x00, 0x00, 0x00, 0x00, 0x00, 0x00, 0x38,
   0x0c, 0x00, 0x18, 0x00, 0x3c, 0x00, 0x00, 0x00, 0x00, 0x00, 0x00, 0x00,
   0x00, 0x78, 0x06, 0xc0, 0x00, 0x00, 0x00, 0x00, 0x00, 0x00, 0x00, 0x00,
   0x00, 0x00, 0x00, 0x00, 0x1c, 0x06, 0x00, 0x0c, 0x00, 0x0f, 0x00, 0x00,
   0x00, 0xd0, 0x7f, 0x01, 0x00, 0x00, 0xe0, 0x1d, 0x80, 0x03, 0x00, 0x00,
   0x00, 0x00, 0x00, 0x00, 0x00, 0x00, 0x00, 0x00, 0x00, 0x0e, 0x03, 0x00,
   0x06, 0x80, 0x07, 0x00, 0x00, 0xc0, 0x3f, 0xc0, 0x7f, 0x00, 0x00, 0xc0,
   0x33, 0x00, 0x07, 0x00, 0x00, 0x00, 0x00, 0x00, 0x00, 0x00, 0x00, 0x00,
   0x00, 0x00, 0x0e, 0x03, 0x00, 0x03, 0xe0, 0x01, 0x00, 0x00, 0x7c, 0x00,
   0x00, 0xc0, 0x0f, 0x00, 0x00, 0xef, 0x00, 0x0e, 0x00, 0x00, 0x00, 0x00,
   0x00, 0x00, 0x00, 0x00, 0x00, 0x00, 0x00, 0x87, 0x01, 0x80, 0x01, 0xf0,
   0x00, 0x00, 0x80, 0x81, 0xff, 0xbf, 0x00, 0x78, 0x00, 0x00, 0x9c, 0x01,
   0x1c, 0x00, 0x00, 0x00, 0x00, 0x00, 0x00, 0x00, 0x00, 0x00, 0x00, 0x80,
   0xc3, 0x00, 0xc0, 0x00, 0x38, 0x00, 0x00, 0x40, 0xfe, 0xff, 0xff, 0x1f,
   0xc0, 0x01, 0x00, 0x38, 0x03, 0x38, 0x00, 0x00, 0x00, 0x00, 0x00, 0x00,
   0x00, 0x00, 0x00, 0x00, 0x80, 0xc1, 0x00, 0x60, 0x00, 0x1e, 0x00, 0x00,
   0xe0, 0xbf, 0x00, 0x40, 0xff, 0x00, 0x0e, 0x00, 0xe0, 0x0c, 0x70, 0x00,
   0x00, 0x00, 0x00, 0x00, 0x00, 0x00, 0x00, 0x00, 0x00, 0xc0, 0x61, 0x00,
   0x30, 0x00, 0x0f, 0x00, 0x00, 0xfc, 0x03, 0x00, 0x00, 0xe0, 0x07, 0x38,
   0x00, 0xc0, 0x19, 0xe0, 0x00, 0x00, 0x00, 0x00, 0x00, 0x00, 0x00, 0x00,
   0x00, 0x00, 0xc0, 0x30, 0x00, 0x18, 0x80, 0x07, 0x00, 0x80, 0x3f, 0x00,
   0x00, 0x00, 0x00, 0x3f, 0xe0, 0x00, 0x80, 0x33, 0xc0, 0x01, 0x00, 0x00,
   0x00, 0x00, 0x00, 0x00, 0x00, 0x00, 0x00, 0xe0, 0x30, 0x00, 0x1c, 0xc0,
   0x01, 0x00, 0xc0, 0x07, 0x00, 0x00, 0x00, 0x00, 0xf8, 0x80, 0x03, 0x00,
   0x67, 0x80, 0x03, 0x00, 0x00, 0x00, 0x00, 0x00, 0x00, 0x00, 0x00, 0x00,
   0x70, 0x18, 0x00, 0x0c, 0xe0, 0x00, 0x00, 0xf8, 0x00, 0x00, 0x10, 0x00,
   0x00, 0xc0, 0x03, 0x0e, 0x00, 0x8e, 0x01, 0x07, 0x00, 0x00, 0x00, 0x00,
   0x00, 0x00, 0x00, 0x00, 0x00, 0x30, 0x08, 0x00, 0x06, 0xf0, 0x00, 0x00,
   0x3e, 0x00, 0xe0, 0xff, 0x5f, 0x00, 0x00, 0x0f, 0x18, 0x00, 0x3c, 0x03,
   0x06, 0x00, 0x00, 0x00, 0x00, 0x00, 0x00, 0x00, 0x00, 0x00, 0x38, 0x0c,
   0x00, 0x03, 0x38, 0x00, 0x00, 0x0f, 0x00, 0xff, 0xff, 0xff, 0x07, 0x00,
   0x3c, 0x60, 0x00, 0x30, 0x06, 0x0c, 0x00, 0x00, 0x00, 0x00, 0x00, 0x00,
   0x00, 0x00, 0x00, 0x18, 0x04, 0x80, 0x01, 0x1c, 0x00, 0xc0, 0x07, 0xf0,
   0xff, 0xff, 0xff, 0x7f, 0x00, 0x70, 0xc0, 0x00, 0xe0, 0x0c, 0x18, 0x00,
   0x00, 0x00, 0x00, 0x00, 0x00, 0x00, 0x00, 0x00, 0x1c, 0x06, 0x80, 0x01,
   0x0e, 0x00, 0xe0, 0x01, 0xfc, 0xff, 0xff, 0xff, 0xff, 0x03, 0xc0, 0x01,
   0x03, 0xc0, 0x18, 0x38, 0x00, 0x00, 0x00, 0x00, 0x00, 0x00, 0x00, 0x00,
   0x00, 0x0c, 0x03, 0xc0, 0x00, 0x0e, 0x00, 0x78, 0x80, 0xff, 0xbf, 0x54,
   0x25, 0xff, 0x0f, 0x80, 0x07, 0x06, 0x80, 0x31, 0x70, 0x00, 0x00, 0x00,
   0x00, 0x00, 0x00, 0x00, 0x00, 0x00, 0x0e, 0x03, 0x60, 0x00, 0x07, 0x00,
   0x3c, 0xe0, 0xff, 0xe5, 0xff, 0xff, 0xe9, 0x3f, 0x00, 0x0e, 0x0c, 0x80,
   0x23, 0x60, 0x00, 0x00, 0x00, 0x00, 0x00, 0x00, 0x00, 0x00, 0x00, 0x06,
   0x01, 0x20, 0x80, 0x03, 0x00, 0x0f, 0xf8, 0x3f, 0xff, 0xff, 0xff, 0x3f,
   0xff, 0x00, 0x18, 0x30, 0x00, 0x67, 0xc0, 0x00, 0x00, 0x00, 0x00, 0x00,
   0x00, 0x00, 0x20, 0x00, 0x87, 0x01, 0x30, 0xc0, 0x01, 0x80, 0x07, 0xfe,
   0xd7, 0xff, 0xff, 0xff, 0xff, 0xfc, 0x03, 0x78, 0x60, 0x00, 0x8e, 0x81,
   0x01, 0x00, 0x00, 0x00, 0x00, 0x00, 0x00, 0x20, 0x00, 0x83, 0x00, 0x18,
   0xe0, 0x00, 0x80, 0x03, 0xff, 0xfb, 0xff, 0xff, 0xff, 0xff, 0xf7, 0x0f,
   0xe0, 0xc0, 0x00, 0x1c, 0x81, 0x03, 0x00, 0x00, 0x00, 0x00, 0x00, 0x00,
   0x30, 0x00, 0xc3, 0x00, 0x18, 0xe0, 0x00, 0xe0, 0xc1, 0x7f, 0xfe, 0xff,
   0xff, 0xff, 0xff, 0xdf, 0x1f, 0xc0, 0x81, 0x01, 0x38, 0x03, 0x03, 0x00,
   0x00, 0x00, 0x00, 0x00, 0x00, 0x30, 0x80, 0x41, 0x00, 0x0c, 0x70, 0x00,
   0x70, 0xe0, 0xdf, 0xff, 0xff, 0xff, 0xff, 0xff, 0x7f, 0x3e, 0x80, 0x03,
   0x03, 0x30, 0x06, 0x06, 0x00, 0x00, 0x00, 0x00, 0x00, 0x00, 0x38, 0x80,
   0x61, 0x00, 0x04, 0x38, 0x00, 0x78, 0xf0, 0xef, 0xff, 0xff, 0xff, 0xff,
   0xff, 0xff, 0xfd, 0x00, 0x06, 0x06, 0x60, 0x0c, 0x0e, 0x00, 0x00, 0x00,
   0x00, 0x00, 0x00, 0x38, 0xc0, 0x60, 0x00, 0x06, 0x18, 0x00, 0x3c, 0xfc,
   0xfb, 0xff, 0xff, 0xff, 0xff, 0xff, 0xff, 0xf7, 0x01, 0x0c, 0x0c, 0xe0,
   0x08, 0x0c, 0x00, 0x00, 0x00, 0x00, 0x00, 0x00, 0x18, 0xc0, 0x20, 0x00,
   0x03, 0x1c, 0x00, 0x0e, 0xfe, 0xfd, 0xff, 0xff, 0xff, 0xff, 0xff, 0xff,
   0xef, 0x03, 0x1c, 0x18, 0xc0, 0x19, 0x18, 0x00, 0x00, 0x00, 0x00, 0x00,
   0x00, 0x1c, 0xe0, 0x30, 0x00, 0x03, 0x0e, 0x00, 0x0e, 0xff, 0xfe, 0xff,
   0xff, 0x25, 0xfd, 0xff, 0xff, 0xdf, 0x0f, 0x30, 0x30, 0x80, 0x31, 0x18,
   0x00, 0x00, 0x00, 0x00, 0x00, 0x00, 0x1c, 0x60, 0x10, 0x00, 0x01, 0x0e,
   0x00, 0x87, 0xbf, 0xff, 0xff, 0x0f, 0xa8, 0x80, 0xff, 0xff, 0x7f, 0x1f,
   0x70, 0x20, 0x00, 0x23, 0x30, 0x00, 0x00, 0x00, 0x00, 0x00, 0x00, 0x1e,
   0x60, 0x10, 0x80, 0x01, 0x07, 0x80, 0xc3, 0xdf, 0xff, 0xff, 0xe1, 0xff,
   0x7f, 0xf8, 0xff, 0xff, 0x3e, 0xc0, 0x40, 0x00, 0x67, 0x70, 0x00, 0x00,
   0x00, 0x00, 0x00, 0x00, 0x0e, 0x70, 0x18, 0xc0, 0x00, 0x0b, 0xc0, 0xe1,
   0xff, 0xff, 0x3f, 0xfe, 0xff, 0xff, 0xe7, 0xff, 0xff, 0x7d, 0xc0, 0xc0,
   0x00, 0xc6, 0x60, 0x00, 0x00, 0x00, 0x00, 0x00, 0x00, 0x0e, 0x30, 0x08,
   0xc0, 0x80, 0x0b, 0xe0, 0xf1, 0xf7, 0xff, 0x8f, 0xff, 0xff, 0xff, 0x1f,
   0xff, 0xff, 0xfb, 0x80, 0x81, 0x01, 0x8c, 0xc1, 0x00, 0x00, 0x00, 0x00,
   0x00, 0x00, 0x0e, 0x30, 0x08, 0x40, 0x80, 0x05, 0xe0, 0xf8, 0xfb, 0xff,
   0xf3, 0xff, 0xff, 0xff, 0x7f, 0xfc, 0xff, 0xf7, 0x00, 0x03, 0x03, 0x0c,
   0xc1, 0x00, 0x00, 0x00, 0x00, 0x00, 0x00, 0x0f, 0x30, 0x0c, 0x60, 0xc0,
   0x05, 0x70, 0xfc, 0xfd, 0xff, 0xf8, 0xff, 0xff, 0xff, 0xff, 0xf9, 0xff,
   0xef, 0x03, 0x06, 0x02, 0x18, 0x83, 0x01, 0x00, 0x00, 0x00, 0x00, 0x00,
   0x0f, 0x18, 0x04, 0x60, 0xc0, 0x02, 0x38, 0xfe, 0xff, 0x7f, 0xfe, 0xff,
   0xff, 0xff, 0xff, 0xe7, 0xff, 0xdf, 0x03, 0x0e, 0x04, 0x38, 0x82, 0x01,
   0x00, 0x00, 0x00, 0x00, 0x00, 0x0f, 0x18, 0x04, 0x30, 0xe0, 0x02, 0x38,
   0xfe, 0xfe, 0x9f, 0xff, 0x7f, 0x45, 0xf4, 0xff, 0xdf, 0xff, 0xbf, 0x07,
   0x0c, 0x0c, 0x30, 0x06, 0x03, 0x00, 0x00, 0x00, 0x00, 0x80, 0x07, 0x18,
   0x06, 0x30, 0x60, 0x01, 0x1c, 0x7f, 0xff, 0xcf, 0xff, 0x4f, 0xff, 0x97,
   0xff, 0x3f, 0xff, 0x7f, 0x0f, 0x18, 0x08, 0x60, 0x0c, 0x03, 0x00, 0x00,
   0x00, 0x00, 0x80, 0x07, 0x0c, 0x06, 0x10, 0x70, 0x01, 0x9c, 0xff, 0xff,
   0xf7, 0xff, 0xf9, 0xff, 0xbf, 0xfc, 0xff, 0xfe, 0xff, 0x1e, 0x30, 0x10,
   0x60, 0x08, 0x06, 0x00, 0x00, 0x00, 0x00, 0x80, 0x07, 0x0c, 0x02, 0x18,
   0xf0, 0x00, 0xce, 0xdf, 0xff, 0xf3, 0x7f, 0xfe, 0xff, 0xff, 0xf3, 0xff,
   0xfd, 0xff, 0x1d, 0x30, 0x30, 0xc0, 0x18, 0x06, 0x00, 0x00, 0x00, 0x00,
   0x80, 0x07, 0x0c, 0x02, 0x18, 0xb0, 0x00, 0xee, 0xff, 0xff, 0xfd, 0xdf,
   0xff, 0xff, 0xff, 0xdf, 0xff, 0xfb, 0xff, 0x3f, 0x60, 0x20, 0xc0, 0x10,
   0x0e, 0x00, 0x00, 0x00, 0x00, 0xc0, 0x07, 0x0c, 0x02, 0x08, 0xb8, 0x00,
   0xf7, 0xef, 0xff, 0xfe, 0xe7, 0x3f, 0x80, 0xfe, 0x7f, 0xff, 0xf7, 0xff,
   0x7b, 0x60, 0x60, 0x80, 0x31, 0x0c, 0x00, 0x00, 0x00, 0x00, 0xc0, 0x07,
   0x06, 0x03, 0x0c, 0xd8, 0x80, 0xf3, 0xff, 0x7f, 0xfe, 0xfb, 0x03, 0x00,
   0xf0, 0xff, 0xfc, 0xef, 0xff, 0x77, 0xc0, 0x40, 0x80, 0x21, 0x0c, 0x00,
   0x00, 0x00, 0x00, 0xc0, 0x03, 0x06, 0x01, 0x0c, 0x5c, 0x80, 0xfb, 0xf7,
   0x3f, 0xff, 0x7c, 0x00, 0x00, 0xc0, 0xff, 0xfb, 0xdf, 0xff, 0xff, 0x80,
   0x81, 0x00, 0x63, 0x18, 0x00, 0x00, 0x00, 0x00, 0xc0, 0x03, 0x06, 0x01,
   0x0c, 0x5c, 0x80, 0xfb, 0xff, 0x9f, 0x7f, 0x3f, 0x00, 0x10, 0x00, 0xfe,
   0xf7, 0xbf, 0xff, 0xef, 0x81, 0x81, 0x01, 0x43, 0x18, 0x00, 0x00, 0x00,
   0x00, 0xc0, 0x03, 0x06, 0x01, 0x04, 0x7c, 0xc0, 0xf9, 0xfb, 0xdf, 0xbf,
   0x0f, 0xe0, 0xff, 0x07, 0xf8, 0xcf, 0x7f, 0xff, 0xdf, 0x01, 0x03, 0x01,
   0xc3, 0x38, 0x00, 0x00, 0x00, 0x00, 0xe0, 0x03, 0x86, 0x01, 0x06, 0x2c,
   0xc0, 0xfd, 0xff, 0xef, 0xdf, 0x03, 0xfc, 0xff, 0x3f, 0xf0, 0xbf, 0xff,
   0xfe, 0xff, 0x03, 0x03, 0x01, 0xc6, 0x30, 0x00, 0x00, 0x00, 0x00, 0xc0,
   0x03, 0x03, 0x01, 0x06, 0x2e, 0xe0, 0xfe, 0xfd, 0xe7, 0xef, 0x01, 0xff,
   0xff, 0xff, 0xc0, 0x7f, 0xff, 0xfe, 0xbf, 0x03, 0x02, 0x02, 0x86, 0x30,
   0x00, 0x00, 0x00, 0x00, 0xe0, 0x03, 0x83, 0x01, 0x02, 0x3e, 0xe0, 0xfe,
   0xff, 0xf7, 0xf7, 0xc0, 0xff, 0xff, 0xff, 0x83, 0xff, 0xfe, 0xfd, 0x7f,
   0x07, 0x06, 0x06, 0x8c, 0x61, 0x00, 0x00, 0x00, 0x00, 0xe0, 0x03, 0x83,
   0x00, 0x06, 0x36, 0xe0, 0xfe, 0xfe, 0xfb, 0x77, 0xf0, 0xff, 0xff, 0xff,
   0x0f, 0xff, 0xfd, 0xfb, 0x7f, 0x07, 0x04, 0x04, 0x0c, 0x61, 0x00, 0x00,
   0x00, 0x00, 0xe0, 0x03, 0x83, 0x00, 0x02, 0x17, 0x70, 0xfe, 0xff, 0xf9,
   0x3b, 0xf8, 0x3f, 0x00, 0xfc, 0x1f, 0xfe, 0xfd, 0xf7, 0xfd, 0x0f, 0x0c,
   0x04, 0x0c, 0x63, 0x00, 0x00, 0x00, 0x00, 0xe0, 0x03, 0x83, 0x00, 0x03,
   0x16, 0x70, 0xff, 0xff, 0xfd, 0x1d, 0xfc, 0x03, 0x00, 0xf0, 0x7f, 0xfc,
   0xfb, 0xf7, 0xfb, 0x0e, 0x0c, 0x0c, 0x18, 0xc3, 0x00, 0x00, 0x00, 0x00,
   0xe0, 0x03, 0x83, 0x00, 0x03, 0x1f, 0x70, 0x7f, 0xff, 0xfc, 0x0e, 0xfe,
   0x00, 0x00, 0xcf, 0xff, 0xf8, 0xf7, 0xef, 0xf3, 0x1d, 0x18, 0x08, 0x18,
   0xc2, 0x00, 0x00, 0x00, 0x00, 0xe0, 0x03, 0x81, 0x00, 0x03, 0x1b, 0x70,
   0xff, 0xff, 0xfe, 0x0e, 0x7f, 0x00, 0x00, 0x38, 0xff, 0xf1, 0xef, 0xef,
   0xe3, 0x1d, 0x18, 0x18, 0x18, 0xc6, 0x00, 0x00, 0x00, 0x00, 0xf0, 0x83,
   0x81, 0x00, 0x01, 0x1b, 0x78, 0xff, 0xff, 0x7e, 0x87, 0x1f, 0x00, 0x00,
   0xe0, 0xfe, 0xf3, 0xef, 0xdf, 0xe7, 0x1f, 0x10, 0x10, 0x30, 0xc6, 0x01,
   0x00, 0x00, 0x00, 0xe0, 0x81, 0xc1, 0x00, 0x81, 0x1b, 0xb8, 0xbf, 0x7f,
   0x7e, 0xc7, 0x0f, 0x00, 0x00, 0x80, 0xf9, 0xe3, 0xdf, 0xdf, 0xc7, 0x3b,
   0x30, 0x10, 0x30, 0x84, 0x01, 0x00, 0x00, 0x00, 0xf0, 0x83, 0x81, 0x80,
   0x81, 0x1b, 0xb8, 0xff, 0x7f, 0xbf, 0xe3, 0x07, 0x00, 0x00, 0x00, 0xf7,
   0xc7, 0xff, 0xbf, 0xcf, 0x3b, 0x30, 0x30, 0x30, 0x8c, 0x01, 0x00, 0x00,
   0x00, 0xe0, 0x81, 0x81, 0x00, 0x81, 0x0f, 0xb8, 0xff, 0x7f, 0xbf, 0xf1,
   0x03, 0x00, 0x00, 0x00, 0xec, 0x8f, 0xbf, 0xbf, 0x8f, 0x3f, 0x20, 0x20,
   0x60, 0x8c, 0x01, 0x00, 0x00, 0x00, 0xf0, 0x83, 0x81, 0x80, 0x81, 0x0d,
   0xb8, 0xdf, 0x3f, 0xbf, 0xf1, 0x01, 0x00, 0x00, 0x00, 0xd8, 0x9f, 0xff,
   0x7f, 0x8f, 0x77, 0x60, 0x20, 0x60, 0x88, 0x03, 0x00, 0x00, 0x00, 0xf0,
   0x83, 0xc1, 0x80, 0x81, 0x1b, 0xdc, 0xff, 0xbf, 0xff, 0xf1, 0x00, 0x00,
   0x00, 0x00, 0x90, 0x1f, 0x7f, 0x7f, 0x1f, 0x7f, 0x60, 0x60, 0x60, 0x18,
   0x03, 0x00, 0x00, 0x00, 0xf0, 0x83, 0x81, 0x80, 0x81, 0x0f, 0x9c, 0xdf,
   0xbf, 0xdf, 0x78, 0x00, 0x00, 0x00, 0x00, 0xb0, 0x3f, 0xff, 0xff, 0x1e,
   0x7f, 0x40, 0x40, 0x60, 0x18, 0x03, 0x00, 0x00, 0x00, 0xf0, 0x81, 0x41,
   0x80, 0x81, 0x0d, 0xdc, 0xff, 0xbf, 0xdf, 0x78, 0x00, 0x00, 0x00, 0x00,
   0x60, 0x7f, 0xfe, 0xfe, 0x1e, 0xee, 0xc0, 0x40, 0xc0, 0x10, 0x03, 0x00,
   0x00, 0x00, 0xf0, 0x83, 0xc1, 0x80, 0x81, 0x0d, 0xdc, 0xff, 0x9f, 0x6f,
   0x3c, 0x00, 0x00, 0x00, 0x00, 0xc0, 0x7e, 0xfe, 0xfe, 0x1e, 0xee, 0xc0,
   0x40, 0xc0, 0x30, 0x03, 0x00, 0x00, 0x00, 0xf0, 0x83, 0x81, 0x80, 0x80,
   0x0f, 0xdc, 0xdf, 0xdf, 0x5f, 0x18, 0x00, 0x00, 0x00, 0x00, 0x80, 0xfe,
   0xfc, 0xff, 0x3e, 0xfe, 0xc0, 0xc0, 0xc0, 0x30, 0x07, 0x00, 0x00, 0x00,
   0xf0, 0x83, 0x81, 0x80, 0x81, 0x0d, 0xdc, 0xff, 0xdf, 0x6f, 0x0c, 0x00,
   0x00, 0x00, 0x00, 0x80, 0xfd, 0xfc, 0xfd, 0x3d, 0xdc, 0x80, 0x80, 0xc0,
   0x30, 0x06, 0x00, 0x00, 0x00, 0xf0, 0x83, 0x81, 0x80, 0x80, 0x0f, 0xdc,
   0xff, 0xdf, 0x6f, 0x04, 0x00, 0x00, 0x00, 0x00, 0x00, 0xfd, 0xfc, 0xff,
   0x3d, 0xdc, 0x81, 0x80, 0xc0, 0x20, 0x06, 0x00, 0x00, 0x00, 0x60, 0x83,
   0x81, 0x80, 0x81, 0x0d, 0xde, 0xef, 0xdf, 0x6f, 0x00, 0x00, 0x00, 0x00,
   0x00, 0x00, 0xfb, 0xf9, 0xfb, 0x3d, 0xfc, 0x81, 0x81, 0x80, 0x60, 0x06,
   0x00, 0x00, 0x00, 0x70, 0x83, 0x81, 0x80, 0xc0, 0x1d, 0xdc, 0xff, 0xdf,
   0x6f, 0x00, 0x00, 0x00, 0x00, 0x00, 0x00, 0xfa, 0xf9, 0xfb, 0x39, 0xd8,
   0x81, 0x81, 0x81, 0x61, 0x06, 0x00, 0x00, 0x00, 0x70, 0x83, 0x81, 0x80,
   0x81, 0x0f, 0xde, 0xef, 0xdf, 0x2f, 0x00, 0x00, 0x00, 0x00, 0x00, 0x00,
   0xf6, 0xf9, 0xff, 0x7b, 0xf8, 0x81, 0x01, 0x81, 0x61, 0x0e, 0x00, 0x00,
   0x00, 0x60, 0x83, 0x81, 0x80, 0x81, 0x1d, 0xdc, 0xff, 0xcf, 0x6f, 0x00,
   0x00, 0x00, 0x00, 0x00, 0x00, 0xf6, 0xfb, 0xf7, 0x3b, 0xb8, 0x01, 0x01,
   0x81, 0x61, 0x06, 0x00, 0x00, 0x00, 0x70, 0x83, 0x81, 0x80, 0xc1, 0x0d,
   0xde, 0xef, 0xdf, 0x2f, 0x00, 0x00, 0x00, 0x00, 0x00, 0x00, 0xf4, 0xf3,
   0xff, 0x7b, 0xb8, 0x83, 0x01, 0x81, 0x41, 0x0e, 0x00, 0x00, 0x00, 0x60,
   0x83, 0x81, 0x80, 0x80, 0x1f, 0xdc, 0xff, 0xdf, 0x6f, 0x00, 0x00, 0x00,
   0x00, 0x00, 0x00, 0xec, 0xf3, 0xf7, 0x7b, 0xf0, 0x03, 0x01, 0x81, 0xc1,
   0x0c, 0x00, 0x00, 0x00, 0x70, 0x86, 0x81, 0x80, 0x81, 0x1d, 0xde, 0xef,
   0xdf, 0x2f, 0x00, 0x00, 0x00, 0x00, 0x00, 0x00, 0xfc, 0xf3, 0xff, 0x77,
   0xb0, 0x03, 0x01, 0x81, 0xc1, 0x0e, 0x00, 0x00, 0x00, 0x60, 0x86, 0x81,
   0x80, 0x81, 0x1f, 0xdc, 0xff, 0xdf, 0x6f, 0x00, 0x00, 0x00, 0x00, 0x00,
   0x00, 0xec, 0xf3, 0xf7, 0x73, 0xf0, 0x03, 0x03, 0x03, 0xc1, 0x0c, 0x00,
   0x00, 0x00, 0x60, 0x86, 0x81, 0x01, 0x81, 0x1b, 0xdc, 0xff, 0x9f, 0x6f,
   0x00, 0x00, 0x00, 0x00, 0x00, 0x00, 0xec, 0xf7, 0xff, 0x77, 0xb0, 0x03,
   0x03, 0x82, 0xc3, 0x0c, 0x00, 0x00, 0x00, 0x60, 0x06, 0x03, 0x81, 0x81,
   0x1b, 0xdc, 0xdf, 0x9f, 0x6f, 0x00, 0x00, 0x00, 0x00, 0x00, 0x00, 0xe8,
   0xf3, 0xf7, 0x77, 0x70, 0x03, 0x03, 0x02, 0xc1, 0x0c, 0x00, 0x00, 0x00,
   0x60, 0x06, 0x03, 0x01, 0x81, 0x3f, 0xbc, 0xdf, 0x9f, 0x4f, 0x00, 0x00,
   0x00, 0x00, 0x00, 0x00, 0xec, 0xf7, 0xff, 0x77, 0xe0, 0x03, 0x03, 0x02,
   0xc3, 0x0d, 0x00, 0x00, 0x00, 0xe0, 0x04, 0x03, 0x01, 0x81, 0x3b, 0xbc,
   0xff, 0xbf, 0x5f, 0x00, 0x00, 0x00, 0x00, 0x00, 0x00, 0xe8, 0xe7, 0xef,
   0x77, 0x70, 0x03, 0x03, 0x02, 0x83, 0x1d, 0x00, 0x00, 0x00, 0xe0, 0x06,
   0x03, 0x01, 0x03, 0x3b, 0xbc, 0xdf, 0xbf, 0xdf, 0x00, 0x00, 0x00, 0x00,
   0x00, 0x00, 0xec, 0xf7, 0xff, 0x77, 0x60, 0x03, 0x02, 0x02, 0x83, 0x0d,
   0x00, 0x00, 0x00, 0x60, 0x0c, 0x03, 0x01, 0x03, 0x3f, 0xbc, 0xff, 0x3f,
   0xdf, 0x00, 0x00, 0x00, 0x00, 0x00, 0x00, 0xe8, 0xf7, 0xef, 0x77, 0xe0,
   0x03, 0x03, 0x02, 0x83, 0x1d, 0x00, 0x00, 0x00, 0xe0, 0x0c, 0x03, 0x03,
   0x03, 0x7b, 0xbc, 0xbf, 0xbf, 0xbf, 0x00, 0x00, 0x00, 0x00, 0x00, 0x00,
   0xec, 0xf7, 0xff, 0x77, 0x60, 0x03, 0x03, 0x02, 0x83, 0x0d, 0x00, 0x00,
   0x00, 0xc0, 0x0c, 0x03, 0x02, 0x02, 0x77, 0xb8, 0xff, 0x3f, 0xbf, 0x01,
   0x00, 0x00, 0x00, 0x00, 0x00, 0xec, 0xe3, 0xef, 0x77, 0xe0, 0x03, 0x02,
   0x02, 0x83, 0x1f, 0x00, 0x00, 0x00, 0xc0, 0x08, 0x02, 0x02, 0x02, 0x77,
   0x78, 0xbf, 0x7f, 0x3f, 0x01, 0x00, 0x00, 0x00, 0x00, 0x00, 0xec, 0xf7,
   0xff, 0x77, 0x60, 0x03, 0x03, 0x02, 0x83, 0x1f, 0x00, 0x00, 0x00, 0xc0,
   0x18, 0x06, 0x02, 0x03, 0x7f, 0x78, 0xff, 0x7f, 0x7e, 0x03, 0x00, 0x00,
   0x00, 0x00, 0x00, 0xec, 0xf3, 0xef, 0x77, 0x60, 0x03, 0x03, 0x06, 0x83,
   0x0f, 0x00, 0x00, 0x00, 0xc0, 0x19, 0x06, 0x02, 0x06, 0xf6, 0x78, 0x7f,
   0x7f, 0x7e, 0x02, 0x00, 0x00, 0x00, 0x00, 0x60, 0xec, 0xf3, 0xff, 0x77,
   0xe0, 0x03, 0x03, 0x02, 0x83, 0x1f, 0x00, 0x00, 0x00, 0xc0, 0x18, 0x06,
   0x06, 0x06, 0xfe, 0xf8, 0xfe, 0xff, 0xfc, 0x06, 0x00, 0x00, 0x00, 0x00,
   0x30, 0xec, 0xf7, 0xff, 0x77, 0x60, 0x03, 0x03, 0x02, 0x83, 0x1f, 0x00,
   0x00, 0x00, 0xc0, 0x11, 0x06, 0x04, 0x04, 0xee, 0xf1, 0xfe, 0xfe, 0xfc,
   0x04, 0x00, 0x00, 0x00, 0x00, 0x38, 0xf6, 0xf3, 0xf7, 0x77, 0xe0, 0x03,
   0x03, 0x06, 0x83, 0x1f, 0x00, 0x00, 0x00, 0x80, 0x31, 0x0c, 0x04, 0x04,
   0xee, 0xf1, 0xfe, 0xff, 0xf9, 0x0d, 0x00, 0x00, 0x00, 0x00, 0x3c, 0xf6,
   0xfb, 0xf7, 0x77, 0x60, 0x03, 0x03, 0x02, 0x83, 0x0f, 0x00, 0x00, 0x00,
   0x80, 0x31, 0x0c, 0x04, 0x0c, 0xfc, 0xf1, 0xfd, 0xfe, 0xf9, 0x1b, 0x00,
   0x00, 0x00, 0x00, 0x3c, 0xf6, 0xfb, 0xff, 0x3b, 0xe0, 0x03, 0x03, 0x06,
   0x83, 0x1f, 0x00, 0x00, 0x00, 0x80, 0x31, 0x0c, 0x0c, 0x0c, 0xdc, 0xf3,
   0xfd, 0xfd, 0xf3, 0x33, 0x00, 0x00, 0x00, 0x00, 0x1e, 0xff, 0xf9, 0xf7,
   0x7b, 0xa0, 0x03, 0x01, 0x02, 0x83, 0x0f, 0x00, 0x00, 0x00, 0x80, 0x23,
   0x0c, 0x08, 0x08, 0xdc, 0xe3, 0xfd, 0xff, 0xf3, 0x67, 0x00, 0x00, 0x00,
   0x00, 0x1f, 0xfb, 0xf9, 0xff, 0x3b, 0xb0, 0x03, 0x03, 0x02, 0x83, 0x1f,
   0x00, 0x00, 0x00, 0x00, 0x63, 0x18, 0x08, 0x18, 0xf8, 0xe7, 0xfb, 0xfb,
   0xe7, 0xcf, 0x00, 0x00, 0x00, 0x80, 0x8f, 0xfb, 0xfd, 0xff, 0x3b, 0xe0,
   0x01, 0x01, 0x02, 0x83, 0x0f, 0x00, 0x00, 0x00, 0x00, 0x63, 0x18, 0x18,
   0x18, 0xb8, 0xe7, 0xfb, 0xff, 0xc7, 0x9f, 0x01, 0x00, 0x00, 0xc0, 0x8f,
   0xfd, 0xfc, 0xfb, 0x3b, 0xb0, 0x01, 0x01, 0x02, 0x81, 0x0f, 0x00, 0x00,
   0x00, 0x00, 0x43, 0x18, 0x10, 0x10, 0xf8, 0xef, 0xf7, 0xf7, 0x8f, 0x7f,
   0x06, 0x00, 0x00, 0xf0, 0xc7, 0xfd, 0xfe, 0xff, 0x1b, 0xb0, 0x83, 0x01,
   0x82, 0x83, 0x0f, 0x00, 0x00, 0x00, 0x00, 0xc7, 0x18, 0x30, 0x30, 0xf0,
   0xcf, 0xf7, 0xef, 0x1f, 0xff, 0x1c, 0x00, 0x00, 0xf8, 0xc3, 0xfe, 0xfe,
   0xff, 0x1d, 0xf0, 0x81, 0x01, 0x02, 0x81, 0x0f, 0x00, 0x00, 0x00, 0x00,
   0xc6, 0x30, 0x20, 0x30, 0x70, 0xff, 0xef, 0xff, 0x3f, 0xfe, 0xf1, 0x00,
   0x00, 0xfc, 0xe1, 0x7e, 0xfe, 0xfd, 0x1d, 0xd0, 0x81, 0x01, 0x82, 0x81,
   0x0f, 0x00, 0x00, 0x00, 0x00, 0x86, 0x30, 0x20, 0x20, 0xe0, 0xff, 0xcf,
   0xdf, 0x7f, 0xfc, 0x87, 0x02, 0x00, 0xff, 0x70, 0x7f, 0xff, 0xfd, 0x1d,
   0xd0, 0x81, 0x01, 0x83, 0x81, 0x0f, 0x00, 0x00, 0x00, 0x00, 0x86, 0x31,
   0x60, 0x60, 0xe0, 0xfe, 0xdf, 0xbf, 0xff, 0xf8, 0x1f, 0x00, 0xc0, 0x7f,
   0x78, 0x3f, 0xff, 0xff, 0x0e, 0xd0, 0x80, 0x00, 0x82, 0x81, 0x0f, 0x00,
   0x00, 0x00, 0x00, 0x0c, 0x61, 0x40, 0x60, 0xe0, 0xff, 0xbf, 0x7f, 0xff,
   0xf1, 0xff, 0x01, 0xfc, 0x1f, 0xb8, 0xbf, 0xff, 0xfe, 0x0e, 0xd8, 0x80,
   0x00, 0x83, 0x81, 0x0f, 0x00, 0x00, 0x00, 0x00, 0x0c, 0x63, 0x40, 0xc0,
   0xc0, 0xfd, 0xbf, 0xff, 0xff, 0xc3, 0xff, 0xff, 0xff, 0x0f, 0xde, 0x9f,
   0xff, 0xff, 0x0e, 0xf8, 0xc0, 0x00, 0x81, 0x81, 0x0f, 0x00, 0x00, 0x00,
   0x00, 0x1c, 0x63, 0x80, 0xc0, 0x80, 0xff, 0x7f, 0xff, 0xfd, 0x87, 0xff,
   0xff, 0xff, 0x03, 0xee, 0xdf, 0x7f, 0x7f, 0x0e, 0xe8, 0xc0, 0x00, 0xc3,
   0x80, 0x07, 0x00, 0x00, 0x00, 0x00, 0x18, 0xc2, 0x80, 0x80, 0x81, 0xfb,
   0x7f, 0xfe, 0xfb, 0x0f, 0xfc, 0xff, 0xff, 0x80, 0xf7, 0xcf, 0xff, 0x7f,
   0x07, 0xe8, 0xc0, 0x00, 0x81, 0x81, 0x0f, 0x00, 0x00, 0x00, 0x00, 0x18,
   0xc6, 0x80, 0x81, 0x01, 0xf7, 0xff, 0xfd, 0xf7, 0x3f, 0xf0, 0xff, 0x3f,
   0xc0, 0xfb, 0xe7, 0xbf, 0x7f, 0x07, 0x6c, 0x40, 0x00, 0xc1, 0x80, 0x07,
   0x00, 0x00, 0x00, 0x00, 0x38, 0x84, 0x01, 0x01, 0x03, 0xff, 0xff, 0xfd,
   0xef, 0x7f, 0x80, 0xfe, 0x05, 0xf0, 0xfd, 0xf7, 0xff, 0xbf, 0x03, 0x74,
   0x40, 0x00, 0xc1, 0xc0, 0x07, 0x00, 0x00, 0x00, 0x00, 0x30, 0x8c, 0x01,
   0x02, 0x03, 0xee, 0xff, 0xfb, 0xdf, 0xff, 0x01, 0x00, 0x00, 0xf8, 0xfc,
   0xf3, 0xdf, 0xbf, 0x03, 0x74, 0x60, 0x80, 0xc1, 0xc0, 0x07, 0x00, 0x00,
   0x00, 0x00, 0x30, 0x08, 0x03, 0x06, 0x06, 0xde, 0xff, 0xf7, 0x3f, 0xff,
   0x0f, 0x00, 0x00, 0x7f, 0xff, 0xf9, 0xff, 0xdf, 0x03, 0x34, 0x60, 0x80,
   0xc0, 0xc0, 0x07, 0x00, 0x00, 0x00, 0x00, 0x60, 0x18, 0x03, 0x04, 0x06,
   0xfc, 0xff, 0xef, 0xff, 0xfe, 0x7f, 0x00, 0xe0, 0x9f, 0xff, 0xfc, 0xef,
   0xdf, 0x01, 0x3e, 0x20, 0x80, 0x61, 0xc0, 0x03, 0x00, 0x00, 0x00, 0x00,
   0x60, 0x10, 0x03, 0x0c, 0x0c, 0xbc, 0xff, 0x9f, 0xff, 0xf9, 0xff, 0x57,
   0xff, 0xef, 0x7f, 0xfe, 0xff, 0xcf, 0x00, 0x3a, 0x30, 0x80, 0x60, 0xc0,
   0x03, 0x00, 0x00, 0x00, 0x00, 0xe0, 0x30, 0x06, 0x08, 0x18, 0xf8, 0xff,
   0xbf, 0xff, 0xef, 0xff, 0xff, 0xff, 0xf3, 0x3f, 0xff, 0xf7, 0xe7, 0x00,
   0x1a, 0x30, 0x80, 0x60, 0xc0, 0x03, 0x00, 0x00, 0x00, 0x00, 0xc0, 0x20,
   0x06, 0x10, 0x18, 0x70, 0xff, 0x7f, 0xfe, 0x9f, 0xff, 0xff, 0x7f, 0xfc,
   0x9f, 0xff, 0xff, 0xf7, 0x00, 0x1d, 0x10, 0xc0, 0x60, 0xc0, 0x03, 0x00,
   0x00, 0x00, 0x00, 0xc0, 0x61, 0x0c, 0x30, 0x30, 0xe0, 0xfe, 0xff, 0xfc,
   0xff, 0xf8, 0xff, 0x8f, 0xff, 0xcf, 0xff, 0xfd, 0x71, 0x00, 0x0d, 0x18,
   0x40, 0x30, 0xc0, 0x03, 0x00, 0x00, 0x00, 0x00, 0x80, 0x41, 0x1c, 0x20,
   0x30, 0xe0, 0xff, 0xff, 0xfb, 0xff, 0x47, 0x5f, 0xf0, 0xff, 0xf7, 0xff,
   0xff, 0x39, 0x80, 0x0e, 0x18, 0x40, 0x30, 0xe0, 0x01, 0x00, 0x00, 0x00,
   0x00, 0x80, 0xc1, 0x18, 0x60, 0x60, 0xc0, 0xfb, 0xff, 0xe7, 0xff, 0xff,
   0xc0, 0xff, 0xff, 0xf9, 0xff, 0xfe, 0x38, 0x80, 0x0e, 0x08, 0x60, 0x30,
   0xe0, 0x01, 0x00, 0x00, 0x00, 0x00, 0x00, 0x83, 0x30, 0xc0, 0xc0, 0x80,
   0xf7, 0xff, 0x9f, 0xff, 0xff, 0xff, 0xff, 0xff, 0xfc, 0xff, 0x7f, 0x1c,
   0x00, 0x07, 0x0c, 0x60, 0x38, 0xe0, 0x01, 0x00, 0x00, 0x00, 0x00, 0x00,
   0x83, 0x31, 0x80, 0x80, 0x01, 0xef, 0xff, 0x3f, 0xff, 0xff, 0xff, 0xff,
   0x3f, 0xfe, 0xbf, 0x3f, 0x0e, 0x40, 0x07, 0x0c, 0x20, 0x18, 0xe0, 0x00,
   0x00, 0x00, 0x00, 0x00, 0x00, 0x06, 0x63, 0x00, 0x81, 0x01, 0xde, 0xff,
   0xff, 0xf8, 0xff, 0xff, 0xff, 0x8f, 0xff, 0xff, 0x3f, 0x0e, 0x80, 0x03,
   0x06, 0x20, 0x18, 0xe0, 0x00, 0x00, 0x00, 0x00, 0x00, 0x00, 0x0e, 0xe2,
   0x00, 0x03, 0x03, 0xbc, 0xff, 0xff, 0xe3, 0xff, 0xff, 0xff, 0xe1, 0xff,
   0xef, 0x1f, 0x07, 0x80, 0x03, 0x06, 0x30, 0x18, 0xf0, 0x00, 0x00, 0x00,
   0x00, 0x00, 0x00, 0x0c, 0xc6, 0x00, 0x06, 0x06, 0xfc, 0xff, 0xff, 0x0f,
   0xff, 0xff, 0x3f, 0xfc, 0xff, 0xff, 0x8f, 0x03, 0xc0, 0x01, 0x02, 0x10,
   0x0c, 0xf0, 0x00, 0x00, 0x00, 0x00, 0x00, 0x00, 0x18, 0x8c, 0x01, 0x04,
   0x0c, 0xf0, 0xfe, 0xff, 0x7f, 0xe0, 0xff, 0x85, 0xff, 0xff, 0xfb, 0xc3,
   0x03, 0xc0, 0x00, 0x03, 0x10, 0x0c, 0x70, 0x00, 0x00, 0x00, 0x00, 0x00,
   0x00, 0x18, 0x88, 0x03, 0x18, 0x1c, 0xe0, 0xfb, 0xff, 0xff, 0x17, 0x00,
   0xf8, 0xff, 0xff, 0xff, 0xc3, 0x01, 0xe0, 0x00, 0x01, 0x18, 0x0e, 0x70,
   0x00, 0x00, 0x00, 0x00, 0x00, 0x00, 0x30, 0x18, 0x03, 0x10, 0x30, 0xc0,
   0xf7, 0xff, 0xff, 0xff, 0xff, 0xff, 0xff, 0xff, 0xfe, 0xe0, 0x00, 0x60,
   0x80, 0x01, 0x08, 0x06, 0x30, 0x00, 0x00, 0x00, 0x00, 0x00, 0x00, 0x30,
   0x30, 0x06, 0x30, 0x70, 0x80, 0xdf, 0xff, 0xff, 0xff, 0xff, 0xff, 0xff,
   0x7f, 0xff, 0x70, 0x00, 0x70, 0xc0, 0x00, 0x0c, 0x06, 0x38, 0x00, 0x00,
   0x00, 0x00, 0x00, 0x00, 0x60, 0x60, 0x0e, 0x60, 0xc0, 0x00, 0xbf, 0xff,
   0xff, 0xff, 0xff, 0xff, 0xff, 0xdf, 0x3f, 0x38, 0x00, 0x38, 0xc0, 0x00,
   0x0c, 0x03, 0x38, 0x00, 0x00, 0x00, 0x00, 0x00, 0x00, 0xe0, 0x40, 0x0c,
   0x80, 0xc0, 0x01, 0xfc, 0xfe, 0xff, 0xff, 0xff, 0xff, 0xff, 0xef, 0x1f,
   0x1c, 0x00, 0x38, 0x60, 0x00, 0x04, 0x03, 0x18, 0x00, 0x00, 0x00, 0x00,
   0x00, 0x00, 0xc0, 0xc0, 0x18, 0x80, 0x01, 0x03, 0xf8, 0xfd, 0xff, 0xff,
   0xff, 0xff, 0xff, 0xfd, 0x07, 0x0f, 0x00, 0x1c, 0x60, 0x00, 0x86, 0x03,
   0x18, 0x00, 0x00, 0x00, 0x00, 0x00, 0x00, 0x80, 0x81, 0x31, 0x00, 0x06,
   0x0f, 0xf0, 0xf7, 0xff, 0xff, 0xff, 0xff, 0xff, 0xff, 0x03, 0x07, 0x00,
   0x0e, 0x30, 0x00, 0x82, 0x01, 0x08, 0x00, 0x00, 0x00, 0x00, 0x00, 0x00,
   0x80, 0x03, 0x73, 0x00, 0x04, 0x1c, 0xc0, 0xbf, 0xff, 0xff, 0xff, 0xff,
   0xbf, 0xff, 0xc1, 0x03, 0x00, 0x07, 0x10, 0x00, 0xc3, 0x01, 0x08, 0x00,
   0x00, 0x00, 0x00, 0x00, 0x00, 0x00, 0x03, 0xe6, 0x00, 0x18, 0x38, 0x00,
   0xff, 0xfe, 0xff, 0xff, 0xff, 0xf7, 0x7f, 0xe0, 0x01, 0x00, 0x07, 0x18,
   0x00, 0xc3, 0x00, 0x00, 0x00, 0x00, 0x00, 0x00, 0x00, 0x00, 0x00, 0x06,
   0xcc, 0x01, 0x30, 0xf0, 0x00, 0xfc, 0xef, 0xff, 0xff, 0x7f, 0xfd, 0x1f,
   0xf0, 0x00, 0x80, 0x03, 0x0c, 0x00, 0xc1, 0x00, 0x00, 0x00, 0x00, 0x00,
   0x00, 0x00, 0x00, 0x00, 0x0c, 0x88, 0x03, 0x60, 0xc0, 0x01, 0xf0, 0x3f,
   0xfd, 0xff, 0xd7, 0xff, 0x07, 0x3c, 0x00, 0xc0, 0x01, 0x0c, 0x80, 0x61,
   0x00, 0x00, 0x00, 0x00, 0x00, 0x00, 0x00, 0x00, 0x00, 0x1c, 0x18, 0x07,
   0xc0, 0x80, 0x07, 0xc0, 0xff, 0x2b, 0x29, 0xfd, 0xff, 0x01, 0x1e, 0x00,
   0xe0, 0x00, 0x06, 0xc0, 0x70, 0x00, 0x00, 0x00, 0x00, 0x00, 0x00, 0x00,
   0x00, 0x00, 0x38, 0x60, 0x0e, 0x00, 0x03, 0x0e, 0x00, 0xfe, 0xff, 0xff,
   0xff, 0x3f, 0x80, 0x07, 0x00, 0x70, 0x00, 0x03, 0xc0, 0x30, 0x00, 0x00,
   0x00, 0x00, 0x00, 0x00, 0x00, 0x00, 0x00, 0x30, 0xc0, 0x1c, 0x00, 0x06,
   0x3c, 0x00, 0xf0, 0xff, 0xff, 0xff, 0x07, 0xc0, 0x03, 0x00, 0x38, 0x00,
   0x01, 0x60, 0x38, 0x00, 0x00, 0x00, 0x00, 0x00, 0x00, 0x00, 0x00, 0x00,
   0x60, 0x80, 0x39, 0x00, 0x18, 0xf0, 0x00, 0x80, 0xff, 0xff, 0x7f, 0x00,
   0xf0, 0x00, 0x00, 0x3c, 0x80, 0x01, 0x20, 0x18, 0x00, 0x00, 0x00, 0x00,
   0x00, 0x00, 0x00, 0x00, 0x00, 0xc0, 0x00, 0x73, 0x00, 0x70, 0xc0, 0x03,
   0x00, 0xa0, 0xff, 0x05, 0x00, 0x7e, 0x00, 0x00, 0x0e, 0xc0, 0x00, 0x30,
   0x1c, 0x00, 0x00, 0x00, 0x00, 0x00, 0x00, 0x00, 0x00, 0x00, 0xc0, 0x01,
   0xe6, 0x00, 0xc0, 0x00, 0x1f, 0x00, 0x00, 0x00, 0x00, 0x80, 0x1f, 0x00,
   0x00, 0x0f, 0x60, 0x00, 0x10, 0x0c, 0x00, 0x00, 0x00, 0x00, 0x00, 0x00,
   0x00, 0x00, 0x00, 0x80, 0x03, 0xcc, 0x01, 0x00, 0x07, 0xfc, 0x00, 0x00,
   0x00, 0x00, 0xf0, 0x03, 0x00, 0x80, 0x03, 0x30, 0x00, 0x18, 0x0e, 0x00,
   0x00, 0x00, 0x00, 0x00, 0x00, 0x00, 0x00, 0x00, 0x00, 0x06, 0x98, 0x03,
   0x00, 0x1c, 0xe0, 0x07, 0x00, 0x00, 0x00, 0xfe, 0x00, 0x00, 0xc0, 0x01,
   0x38, 0x00, 0x0c, 0x07, 0x00, 0x00, 0x00, 0x00, 0x00, 0x00, 0x00, 0x00,
   0x00, 0x00, 0x0e, 0x30, 0x0f, 0x00, 0x70, 0x00, 0xbf, 0x00, 0x00, 0xe0,
   0x1f, 0x00, 0x00, 0xe0, 0x00, 0x08, 0x00, 0x0c, 0x03, 0x00, 0x00, 0x00,
   0x00, 0x00, 0x00, 0x00, 0x00, 0x00, 0x00, 0x1c, 0xc0, 0x1c, 0x00, 0xc0,
   0x03, 0xfc, 0x5f, 0xa4, 0xff, 0x03, 0x00, 0x00, 0x78, 0x00, 0x0e, 0x00,
   0x86, 0x03, 0x00, 0x00, 0x00, 0x00, 0x00, 0x00, 0x00, 0x00, 0x00, 0x00,
   0x38, 0x80, 0x39, 0x00, 0x00, 0x1e, 0x80, 0xff, 0xff, 0x3f, 0x0c, 0x00,
   0x00, 0x3c, 0x00, 0x06, 0x00, 0xc3, 0x01, 0x00, 0x00, 0x00, 0x00, 0x00,
   0x00, 0x00, 0x00, 0x00, 0x00, 0x60, 0x00, 0xf7, 0x00, 0x00, 0xf0, 0x00,
   0xa0, 0x2a, 0xe0, 0x01, 0x00, 0x00, 0x1e, 0x00, 0x03, 0x00, 0xc3, 0x01,
   0x00, 0x00, 0x00, 0x00, 0x00, 0x00, 0x00, 0x00, 0x00, 0x00, 0xe0, 0x00,
   0xcc, 0x01, 0x00, 0x80, 0x3f, 0x00, 0xa0, 0x1f, 0x00, 0x00, 0x80, 0x07,
   0xc0, 0x01, 0x80, 0xe1, 0x00, 0x00, 0x00, 0x00, 0x00, 0x00, 0x00, 0x00,
   0x00, 0x00, 0x00, 0x80, 0x01, 0xb8, 0x07, 0x00, 0x00, 0xf0, 0xff, 0xff,
   0x02, 0x00, 0x00, 0xc0, 0x03, 0xc0, 0x00, 0xc0, 0x70, 0x00, 0x00, 0x00,
   0x00, 0x00, 0x00, 0x00, 0x00, 0x00, 0x00, 0x00, 0x00, 0x07, 0x60, 0x1e,
   0x00, 0x00, 0x00, 0x10, 0x01, 0x00, 0x00, 0x00, 0xf0, 0x00, 0x70, 0x00,
   0xc0, 0x30, 0x00, 0x00, 0x00, 0x00, 0x00, 0x00, 0x00, 0x00, 0x00, 0x00,
   0x00, 0x00, 0x0e, 0x80, 0x79, 0x00, 0x00, 0x00, 0x00, 0x00, 0x00, 0x00,
   0x00, 0x7c, 0x00, 0x18, 0x00, 0x60, 0x38, 0x00, 0x00, 0x00, 0x00, 0x00,
   0x00, 0x00, 0x00, 0x00, 0x00, 0x00, 0x00, 0x1c, 0x00, 0xe7, 0x01, 0x00,
   0x00, 0x00, 0x00, 0x00, 0x00, 0x00, 0x1f, 0x00, 0x1c, 0x00, 0x30, 0x1c,
   0x00, 0x00, 0x00, 0x00, 0x00, 0x00, 0x00, 0x00, 0x00, 0x00, 0x00, 0x00,
   0x30, 0x00, 0xdc, 0x07, 0x00, 0x00, 0x00, 0x00, 0x00, 0x00, 0xc0, 0x07,
   0x00, 0x06, 0x00, 0x38, 0x0e, 0x00, 0x00, 0x00, 0x00, 0x00, 0x00, 0x00,
   0x00, 0x00, 0x00, 0x00, 0x00, 0xe0, 0x00, 0x60, 0x1e, 0x00, 0x00, 0x00,
   0x00, 0x00, 0x00, 0xf0, 0x01, 0x80, 0x03, 0x00, 0x1c, 0x07, 0x00, 0x00,
   0x00, 0x00, 0x00, 0x00, 0x00, 0x00, 0x00, 0x00, 0x00, 0x00, 0xc0, 0x01,
   0x80, 0xfd, 0x00, 0x00, 0x00, 0x00, 0x00, 0x00, 0x7c, 0x00, 0xc0, 0x01,
   0x00, 0x8c, 0x07, 0x00, 0x00, 0x00, 0x00, 0x00, 0x00, 0x00, 0x00, 0x00,
   0x00, 0x00, 0x00, 0x00, 0x07, 0x00, 0xe6, 0x03, 0x00, 0x00, 0x00, 0x00,
   0x80, 0x1f, 0x00, 0x60, 0x00, 0x00, 0x86, 0x03, 0x00, 0x00, 0x00, 0x00,
   0x00, 0x00, 0x00, 0x00, 0x00, 0x00, 0x00, 0x00, 0x00, 0x0e, 0x00, 0x58,
   0x3f, 0x00, 0x00, 0x00, 0x00, 0xf8, 0x03, 0x00, 0x38, 0x00, 0x00, 0xc3,
   0x01, 0x00, 0x00, 0x00, 0x00, 0x00, 0x00, 0x00, 0x00, 0x00, 0x00, 0x00,
   0x00, 0x00, 0x38, 0x00, 0x80, 0xfd, 0x03, 0x00, 0x00, 0x00, 0xff, 0x00,
   0x00, 0x0e, 0x00, 0xc0, 0xf1, 0x00, 0x00, 0x00, 0x00, 0x00, 0x00, 0x00,
   0x00, 0x00, 0x00, 0x00, 0x00, 0x00, 0x00, 0xf0, 0x00, 0x00, 0xe0, 0x7f,
   0x01, 0x00, 0xfd, 0x0f, 0x00, 0x00, 0x07, 0x00, 0xc0, 0x71, 0x00, 0x00,
   0x00, 0x00, 0x00, 0x00, 0x00, 0x00, 0x00, 0x00, 0x00, 0x00, 0x00, 0x00,
   0xc0, 0x01, 0x00, 0x00, 0xfc, 0xff, 0xff, 0xff, 0x00, 0x00, 0xc0, 0x01,
   0x00, 0x60, 0x38, 0x00, 0x00, 0x00, 0x00, 0x00, 0x00, 0x00, 0x00, 0x00,
   0x00, 0x00, 0x00, 0x00, 0x00, 0x00, 0x07, 0x00, 0x00, 0x80, 0xfe, 0xff,
   0x01, 0x00, 0x00, 0x70, 0x00, 0x00, 0x70, 0x1c, 0x00, 0x00, 0x00, 0x00,
   0x00, 0x00, 0x00, 0x00, 0x00, 0x00, 0x00, 0x00, 0x00, 0x00, 0x00, 0x3e,
   0x00, 0x00, 0x00, 0x00, 0x00, 0x00, 0x00, 0x00, 0x3c, 0x00, 0x00, 0x18,
   0x0f, 0x00, 0x00, 0x00, 0x00, 0x00, 0x00, 0x00, 0x00, 0x00, 0x00, 0x00,
   0x00, 0x00, 0x00, 0x00, 0xf0, 0x00, 0x00, 0x00, 0x00, 0x00, 0x00, 0x00,
   0x00, 0x07, 0x00, 0x00, 0x9c, 0x0f, 0x00, 0x00, 0x00, 0x00, 0x00, 0x00,
   0x00, 0x00, 0x00, 0x00, 0x00, 0x00, 0x00, 0x00, 0x00, 0xc0, 0x03, 0x00,
   0x00, 0x00, 0x00, 0x00, 0x00, 0xc0, 0x03, 0x00, 0x00, 0x8f, 0x03, 0x00,
   0x00, 0x00, 0x00, 0x00, 0x00, 0x00, 0x00, 0x00, 0x00, 0x00, 0x00, 0x00,
   0x00, 0x00, 0x00, 0x1f, 0x00, 0x00, 0x00, 0x00, 0x00, 0x00, 0x78, 0x00,
   0x00, 0x00, 0xe7, 0x01, 0x00, 0x00, 0x00, 0x00, 0x00, 0x00, 0x00, 0x00,
   0x00, 0x00, 0x00, 0x00, 0x00, 0x00, 0x00, 0x00, 0xf8, 0x00, 0x00, 0x00,
   0x00, 0x00, 0x00, 0x1f, 0x00, 0x00, 0xc0, 0xf1, 0x00, 0x00, 0x00, 0x00,
   0x00, 0x00, 0x00, 0x00, 0x00, 0x00, 0x00, 0x00, 0x00, 0x00, 0x00, 0x00,
   0x00, 0xc0, 0x07, 0x00, 0x00, 0x00, 0x00, 0xe0, 0x03, 0x00, 0x00, 0xe0,
   0x7d, 0x00, 0x00, 0x00, 0x00, 0x00, 0x00, 0x00, 0x00, 0x00, 0x00, 0x00,
   0x00, 0x00, 0x00, 0x00, 0x00, 0x00, 0x00, 0xfe, 0x00, 0x00, 0x00, 0x00,
   0x7e, 0x00, 0x00, 0x00, 0x70, 0x3e, 0x00, 0x00, 0x00, 0x00, 0x00, 0x00,
   0x00, 0x00, 0x00, 0x00, 0x00, 0x00, 0x00, 0x00, 0x00, 0x00, 0x00, 0x00,
   0xd0, 0x1f, 0x00, 0x00, 0xf4, 0x07, 0x00, 0x00, 0x00, 0xbc, 0x0f, 0x00,
   0x00, 0x00, 0x00, 0x00, 0x00, 0x00, 0x00, 0x00, 0x00, 0x00, 0x00, 0x00,
   0x00, 0x00, 0x00, 0x00, 0x00, 0x00, 0xfa, 0xff, 0xff, 0x7f, 0x00, 0x00,
   0x00, 0x00, 0x9e, 0x0f, 0x00, 0x00, 0x00, 0x00, 0x00, 0x00, 0x00, 0x00,
   0x00, 0x00, 0x00, 0x00, 0x00, 0x00, 0x00, 0x00, 0x00, 0x00, 0x00, 0x80,
   0xaa, 0x5a, 0x00, 0x00, 0x00, 0x00, 0x00, 0xff, 0x03, 0x00, 0x00, 0x00,
   0x00, 0x00, 0x00, 0x00, 0x00, 0x00, 0x00, 0x00, 0x00, 0x00, 0x00, 0x00,
   0x00, 0x00, 0x00, 0x00, 0x00, 0x00, 0x00, 0x00, 0x00, 0x00, 0x00, 0xc0,
   0xff, 0x01, 0x00, 0x00, 0x00, 0x00, 0x00, 0x00, 0x00, 0x00, 0x00, 0x00,
   0x00, 0x00, 0x00, 0x00, 0x00, 0x00, 0x00, 0x00, 0x00, 0x00, 0x00, 0x00,
   0x00, 0x00, 0x00, 0x00, 0xe0, 0x7f, 0x00, 0x00, 0x00, 0x00, 0x00, 0x00,
   0x00, 0x00, 0x00, 0x00, 0x00, 0x00, 0x00, 0x00, 0x00, 0x00, 0x00, 0x00,
   0x00, 0x00, 0x00, 0x00, 0x00, 0x00, 0x00, 0x00, 0x00, 0xf8, 0x3f, 0x00,
   0x00, 0x00, 0x00, 0x00, 0x00, 0x00, 0x00, 0x00, 0x00, 0x00, 0x00, 0x00,
   0x00, 0x00, 0x00, 0x00, 0x00, 0x00, 0x00, 0x00, 0x00, 0x00, 0x00, 0x00,
   0x00, 0x00, 0xfe, 0x0f, 0x00, 0x00, 0x00, 0x00, 0x00, 0x00, 0x00, 0x00,
   0x00, 0x00, 0x00, 0x00, 0x00, 0x00, 0x00, 0x00, 0x00, 0x00, 0x00, 0x00,
   0x00, 0x00, 0x00, 0x00, 0x00, 0x00, 0x00, 0xff, 0x07, 0x00, 0x00, 0x00,
   0x00, 0x00, 0x00, 0x00, 0x00, 0x00, 0x00, 0x00, 0x00, 0x00, 0x00, 0x00,
   0x00, 0x00, 0x00, 0x00, 0x00, 0x00, 0x00, 0x00, 0x00, 0x00, 0x00, 0xc0,
   0xff, 0x01, 0x00, 0x00, 0x00, 0x00, 0x00, 0x00, 0x00, 0x00, 0x00, 0x00,
   0x00, 0x00, 0x00, 0x00, 0x00, 0x00, 0x00, 0x00, 0x00, 0x00, 0x00, 0x00,
   0x00, 0x00, 0x00, 0x00, 0xf0, 0xff, 0x00, 0x00, 0x00, 0x00, 0x00, 0x00,
   0x00, 0x00, 0x00, 0x00, 0x00, 0x00, 0x00, 0x00, 0x00, 0x00, 0x00, 0x00,
   0x00, 0x00, 0x00, 0x00, 0x00, 0x00, 0x00, 0x00, 0x00, 0xfc, 0x3f, 0x00,
   0x00, 0x00, 0x00, 0x00, 0x00, 0x00, 0x00, 0x00, 0x00, 0x00, 0x00, 0x00,
   0x00, 0x00, 0x00, 0x00, 0x00, 0x00, 0x00, 0x00, 0x00, 0x00, 0x00, 0x00,
   0x00, 0x00, 0xff, 0x0f, 0x00, 0x00, 0x00, 0x00, 0x00, 0x00, 0x00, 0x00,
   0x00, 0x00, 0x00, 0x00, 0x00, 0x00, 0x00, 0x00, 0x00, 0x00, 0x00, 0x00,
   0x00, 0x00, 0x00, 0x00, 0x00, 0x00, 0xe0, 0xff, 0x03, 0x00, 0x00, 0x00,
   0x00, 0x00, 0x00, 0x00, 0x00, 0x00, 0x00, 0x00, 0x00, 0x00, 0x00, 0x00,
   0x00, 0x00, 0x00, 0x00, 0x00, 0x00, 0x00, 0x00, 0x00, 0x00, 0x00, 0xf8,
   0xff, 0x00, 0x00, 0x00, 0x00, 0x00, 0x00, 0x00, 0x00, 0x00, 0x00, 0x00,
   0x00, 0x00, 0x00, 0x00, 0x00, 0x00, 0x00, 0x00, 0x00, 0x00, 0x00, 0x00,
   0x00, 0x00, 0x00, 0x00, 0xff, 0x3f, 0x00, 0x00, 0x00, 0x00, 0x00, 0x00,
   0x00, 0x00, 0x00, 0x00, 0x00, 0x00, 0x00, 0x00, 0x00, 0x00, 0x00, 0x00,
   0x00, 0x00, 0x00, 0x00, 0x00, 0x00, 0x00, 0x00, 0xe0, 0xff, 0x07, 0x00,
   0x00, 0x00, 0x00, 0x00, 0x00, 0x00, 0x00, 0x00, 0x00, 0x00, 0x00, 0x00,
   0x00, 0x00, 0x00, 0x00, 0x00, 0x00, 0x00, 0x00, 0x00, 0x00, 0x00, 0x00,
   0x00, 0xfc, 0xff, 0x01, 0x00, 0x00, 0x00, 0x00, 0x00, 0x00, 0x00, 0x00,
   0x00, 0x00, 0x00, 0x00, 0x00, 0x00, 0x00, 0x00, 0x00, 0x00, 0x00, 0x00,
   0x00, 0x00, 0x00, 0x00, 0x00, 0xc0, 0xff, 0x3f, 0x00, 0x00, 0x00, 0x00,
   0x00, 0x00, 0x00, 0x00, 0x00, 0x00, 0x00, 0x00, 0x00, 0x00, 0x00, 0x00,
   0x00, 0x00, 0x00, 0x00, 0x00, 0x00, 0x00, 0x00, 0x00, 0x00, 0xfe, 0xff,
   0x03, 0x00, 0x00, 0x00, 0x00, 0x00, 0x00, 0x00, 0x00, 0x00, 0x00, 0x00,
   0x00, 0x00, 0x00, 0x00, 0x00, 0x00, 0x00, 0x00, 0x00, 0x00, 0x00, 0x00,
   0x00, 0x00, 0xf4, 0xff, 0x7f, 0x00, 0x00, 0x00, 0x00, 0x00, 0x00, 0x00,
   0x00, 0x00, 0x00, 0x00, 0x00, 0x00, 0x00, 0x00, 0x00, 0x00, 0x00, 0x00,
   0x00, 0x00, 0x00, 0x00, 0x00, 0x00, 0xfa, 0xff, 0xff, 0x03, 0x00, 0x00,
   0x00, 0x00, 0x00, 0x00, 0x00, 0x00, 0x00, 0x00, 0x00, 0x00, 0x00, 0x00,
   0x00, 0x00, 0x00, 0x00, 0x00, 0x00, 0x00, 0x00, 0x00, 0x00, 0x00, 0xfe,
   0xff, 0x2f, 0x00, 0x00, 0x00, 0x00, 0x00, 0x00, 0x00, 0x00, 0x00, 0x00,
   0x00, 0x00, 0x00, 0x00, 0x00, 0x00, 0x00, 0x00, 0x00, 0x00, 0x00, 0x00,
   0x00, 0x00, 0x00, 0x00, 0x00, 0x00, 0x00, 0x00, 0x00, 0x00, 0x00, 0x00,
   0x00, 0x00, 0x00, 0x00, 0x00, 0x00, 0x00, 0x00, 0x00 };
